<?xml version="1.0" encoding="UTF-8"?>
<svg width="120px" height="48px" viewBox="0 0 120 48" version="1.1" xmlns="http://www.w3.org/2000/svg" xmlns:xlink="http://www.w3.org/1999/xlink">
    <!-- Generator: Sketch 53 (72520) - https://sketchapp.com -->
    <title>Group 7 Copy</title>
    <desc>Created with Sketch.</desc>
    <defs>
        <path d="M6,8 C4.9,8 4,8.9 4,10 C4,11.1 4.9,12 6,12 C7.1,12 8,11.1 8,10 C8,8.9 7.1,8 6,8 L6,8 Z M2,4 C0.9,4 0,4.9 0,6 C0,7.1 0.9,8 2,8 C3.1,8 4,7.1 4,6 C4,4.9 3.1,4 2,4 L2,4 Z M2,12 C0.9,12 0,12.9 0,14 C0,15.1 0.9,16 2,16 C3.1,16 4,15.1 4,14 C4,12.9 3.1,12 2,12 L2,12 Z M14,4 C15.1,4 16,3.1 16,2 C16,0.9 15.1,0 14,0 C12.9,0 12,0.9 12,2 C12,3.1 12.9,4 14,4 L14,4 Z M10,12 C8.9,12 8,12.9 8,14 C8,15.1 8.9,16 10,16 C11.1,16 12,15.1 12,14 C12,12.9 11.1,12 10,12 L10,12 Z M14,8 C12.9,8 12,8.9 12,10 C12,11.1 12.9,12 14,12 C15.1,12 16,11.1 16,10 C16,8.9 15.1,8 14,8 L14,8 Z M10,4 C8.9,4 8,4.9 8,6 C8,7.1 8.9,8 10,8 C11.1,8 12,7.1 12,6 C12,4.9 11.1,4 10,4 L10,4 Z M6,0 C4.9,0 4,0.9 4,2 C4,3.1 4.9,4 6,4 C7.1,4 8,3.1 8,2 C8,0.9 7.1,0 6,0 L6,0 Z" id="path-1"></path>
        <rect id="path-3" x="0" y="0" width="50" height="50"></rect>
    </defs>
    <g id="Dashboard" stroke="none" stroke-width="1" fill="none" fill-rule="evenodd">
        <g id="Group-7-Copy">
            <g id="Group-6">
                <rect id="Rectangle" fill="#00D69F" x="0" y="0" width="48" height="48"></rect>
                <g id="ic_access_time-copy-2" transform="translate(16.000000, 16.000000)">
                    <mask id="mask-2" fill="white">
                        <use xlink:href="#path-1"></use>
                    </mask>
                    <g id="Mask"></g>
                    <g id="Colors/White" mask="url(#mask-2)">
                        <g transform="translate(-17.000000, -17.000000)">
                            <mask id="mask-4" fill="white">
                                <use xlink:href="#path-3"></use>
                            </mask>
                            <use id="White" stroke="none" fill="#FFFFFF" fill-rule="evenodd" xlink:href="#path-3"></use>
                        </g>
                    </g>
                </g>
            </g>
            <path d="M64.075,17.2 C65.3416668,17.2 66.4375,17.4833332 67.3625,18.05 C68.2875,18.6166668 69.0083332,19.375 69.525,20.325 L67.225,22.1 C66.375,20.8333332 65.325,20.2 64.075,20.2 C63.4916668,20.2 63.0041668,20.3375 62.6125,20.6125 C62.2208332,20.8875 62.025,21.2833332 62.025,21.8 C62.025,22.2333332 62.1708332,22.5791668 62.4625,22.8375 C62.7541668,23.0958332 63.25,23.3833332 63.95,23.7 L65.825,24.525 C67.2083332,25.1416668 68.2333332,25.8208332 68.9,26.5625 C69.5666668,27.3041668 69.9,28.2333332 69.9,29.35 C69.9,30.85 69.3583332,32.05 68.275,32.95 C67.1916668,33.85 65.8083332,34.3 64.125,34.3 C62.725,34.3 61.4708332,33.9708332 60.3625,33.3125 C59.2541668,32.6541668 58.3833332,31.7666668 57.75,30.65 L60.075,28.9 C61.225,30.5 62.575,31.3 64.125,31.3 C64.8583332,31.3 65.4333332,31.1375 65.85,30.8125 C66.2666668,30.4875 66.475,30.0416668 66.475,29.475 C66.475,29.1416668 66.3791668,28.8458332 66.1875,28.5875 C65.9958332,28.3291668 65.7791668,28.1333332 65.5375,28 C65.2958332,27.8666668 64.9083332,27.675 64.375,27.425 L62.6,26.625 C61.3166668,26.0416668 60.3291668,25.375 59.6375,24.625 C58.9458332,23.875 58.6,22.9583332 58.6,21.875 C58.6,20.475 59.1166668,19.3458332 60.15,18.4875 C61.1833332,17.6291668 62.4916668,17.2 64.075,17.2 Z M79.725,21.35 C81.475,21.35 82.9125,21.9583332 84.0375,23.175 C85.1625,24.3916668 85.725,25.9333332 85.725,27.8 C85.725,29.6666668 85.1625,31.2166668 84.0375,32.45 C82.9125,33.6833332 81.475,34.3 79.725,34.3 C78.175,34.3 76.9416668,33.8 76.025,32.8 L76.025,38.5 L72.65,38.5 L72.65,21.625 L75.75,21.625 L75.75,23.175 C76.6333332,21.9583332 77.9583332,21.35 79.725,21.35 Z M79.1,31.225 C80,31.225 80.7583332,30.9125 81.375,30.2875 C81.9916668,29.6625 82.3,28.8416668 82.3,27.825 C82.3,26.7916668 81.9958332,25.9625 81.3875,25.3375 C80.7791668,24.7125 80.0166668,24.4 79.1,24.4 C78.25,24.4 77.5166668,24.6875 76.9,25.2625 C76.2833332,25.8375 75.975,26.6833332 75.975,27.8 C75.975,28.9 76.2791668,29.7458332 76.8875,30.3375 C77.4958332,30.9291668 78.2333332,31.225 79.1,31.225 Z M90.05,15.025 C90.65,15.025 91.1625,15.225 91.5875,15.625 C92.0125,16.025 92.225,16.525 92.225,17.125 C92.225,17.7083332 92.0125,18.2 91.5875,18.6 C91.1625,19 90.65,19.2 90.05,19.2 C89.45,19.2 88.9416668,19 88.525,18.6 C88.1083332,18.2 87.9,17.7083332 87.9,17.125 C87.9,16.525 88.1083332,16.025 88.525,15.625 C88.9416668,15.225 89.45,15.025 90.05,15.025 Z M91.75,21.625 L91.75,34 L88.375,34 L88.375,21.625 L91.75,21.625 Z M101.025,21.35 C102.241667,21.35 103.308333,21.6208332 104.225,22.1625 C105.141667,22.7041668 105.866667,23.45 106.4,24.4 L104.05,26.225 C103.25,25.025 102.258333,24.425 101.075,24.425 C100.125,24.425 99.3458332,24.7458332 98.7375,25.3875 C98.1291668,26.0291668 97.825,26.8333332 97.825,27.8 C97.825,28.7833332 98.1291668,29.5958332 98.7375,30.2375 C99.3458332,30.8791668 100.125,31.2 101.075,31.2 C102.225,31.2 103.216667,30.6083332 104.05,29.425 L106.4,31.225 C105.866667,32.175 105.1375,32.925 104.2125,33.475 C103.2875,34.025 102.225,34.3 101.025,34.3 C99.175,34.3 97.6083332,33.675 96.325,32.425 C95.0416668,31.175 94.4,29.6333332 94.4,27.8 C94.4,25.9833332 95.0416668,24.4541668 96.325,23.2125 C97.6083332,21.9708332 99.175,21.35 101.025,21.35 Z M113.975,21.35 C115.591667,21.35 116.879167,21.8041668 117.8375,22.7125 C118.795833,23.6208332 119.275,24.9333332 119.275,26.65 L119.275,34 L116.175,34 L116.175,32.8 C115.225,33.8 113.966667,34.3 112.4,34.3 C111.083333,34.3 110.041667,33.9541668 109.275,33.2625 C108.508333,32.5708332 108.125,31.6833332 108.125,30.6 C108.125,29.4833332 108.545833,28.6041668 109.3875,27.9625 C110.229167,27.3208332 111.366667,27 112.8,27 L115.9,27 L115.9,26.45 C115.9,25.7666668 115.704167,25.2333332 115.3125,24.85 C114.920833,24.4666668 114.35,24.275 113.6,24.275 C112.5,24.275 111.408333,24.8416668 110.325,25.975 L108.575,23.9 C110.008333,22.2 111.808333,21.35 113.975,21.35 Z M113.3,31.825 C114.033333,31.825 114.65,31.5958332 115.15,31.1375 C115.65,30.6791668 115.9,30.0916668 115.9,29.375 L115.9,29.225 L113.25,29.225 C112.1,29.225 111.525,29.6416668 111.525,30.475 C111.525,30.8916668 111.6875,31.2208332 112.0125,31.4625 C112.3375,31.7041668 112.766667,31.825 113.3,31.825 Z" id="Spica" fill="#000000" fill-rule="nonzero"></path>
        </g>
    </g>
</svg>